<svg xmlns="http://www.w3.org/2000/svg" viewBox="0 0 40.61 40.67"><defs><style>.cls-1{fill:#fff;}.cls-2{fill:#d71920;}.cls-3{fill:#004990;}</style></defs><g id="Layer_2" data-name="Layer 2"><g id="LightBGLogo"><path class="cls-1" d="M.09,20.33A20.22,20.22,0,1,1,20.38,40.58,20.26,20.26,0,0,1,.09,20.33Z"/><path class="cls-2" d="M0,20.33A20.35,20.35,0,0,1,20.38,0h0A20.12,20.12,0,0,1,34.72,6h0a20.33,20.33,0,0,1,5.89,14.37h0a20.33,20.33,0,0,1-5.89,14.38h0a20.12,20.12,0,0,1-14.34,6h0A20.35,20.35,0,0,1,0,20.33Zm.18,0A20.1,20.1,0,0,0,6.09,34.59h0a20.17,20.17,0,0,0,14.29,5.9h0A20.05,20.05,0,0,0,40.44,20.33h0A20.05,20.05,0,0,0,20.38.18h0A20.17,20.17,0,0,0,6.09,6.08h0A20.1,20.1,0,0,0,.18,20.33Z"/><path class="cls-2" d="M1.35,20.33a19,19,0,0,1,19-19h0a19,19,0,0,1,19,19h0a19,19,0,0,1-19,19h0a19,19,0,0,1-19-19Zm1.23,0a17.64,17.64,0,0,0,5.2,12.53h0a17.68,17.68,0,0,0,12.53,5.2h0a17.71,17.71,0,0,0,12.53-5.2h0A17.67,17.67,0,0,0,38,20.33h0A17.7,17.7,0,0,0,32.84,7.8h0A17.7,17.7,0,0,0,20.31,2.61h0A17.67,17.67,0,0,0,7.78,7.8h0a17.67,17.67,0,0,0-5.2,12.53Z"/><path class="cls-2" d="M33.36,38.41a1,1,0,1,1,1,1A1,1,0,0,1,33.36,38.41Zm1,.82a.82.82,0,1,0-.8-.82A.79.79,0,0,0,34.36,39.23ZM34.15,39H34V37.84h.43c.27,0,.4.1.4.33a.3.3,0,0,1-.29.31l.32.5h-.19l-.3-.49h-.2Zm.21-.64c.14,0,.27,0,.27-.18S34.5,38,34.38,38h-.23v.35Z"/><path class="cls-3" d="M22.44,25a.74.74,0,0,1,.75-.78c.55,0,.82.43.82,1l.3,0,0-.86h0l0,0A1.68,1.68,0,0,0,23.17,24a1.25,1.25,0,0,0-1.31,1.26c0,1.64,2.14.94,2.12,2.06a.81.81,0,0,1-.83.88h0a1.11,1.11,0,0,1-1-1.21l-.33,0v0h0V27l.08,1.15a2.42,2.42,0,0,0,1.22.27,1.42,1.42,0,0,0,1.58-1.38C24.64,25.48,22.42,25.94,22.44,25Zm-.66,2Zm-2-3a2.73,2.73,0,0,0-.4.05l-.72.46.1.08a2,2,0,0,1,.58-.09c1,0,1.45.93,1.45,1.88s-.43,1.81-1.31,1.81a.9.9,0,0,1-.93-1V21.45l-.18-.08a4.45,4.45,0,0,1-1.21.35v.17a1.59,1.59,0,0,1,.68.17v5.21c0,.37,0,.73,0,1.12l.16.09.33-.32a2,2,0,0,0,.94.29,2.15,2.15,0,0,0,2.25-2.35C21.48,24.73,20.86,24,19.79,24Zm-5-1.61,0-.23h-2.1l0,.22.82.22-.12.35L12,26.82c-.15-.45-1.28-3.85-1.35-4.13l.1-.17.69-.1v-.25H9.19v.23l.63.15.11.2c-.08.29-1.26,3.64-1.42,4.09L7.15,22.6h0l.67-.17,0-.25h-.1l-2.26,0,0,.23.81.2,1.87,5.89h.28l1.7-4.68,1.57,4.65.31,0,2.05-5.9Zm-6.94-.19Zm-.73.41h0l.05.17Zm5.6-.45Zm.79.42,0,0,0,0Zm13.86,4.89,0,0c-.2.19-.5.49-.74.49-.46,0-.64-.33-.65-.91A.17.17,0,0,1,26,27V24.69h0l1.22,0,0-.43-1.29,0,0-1.1-.23,0a2.57,2.57,0,0,1-1.14,1.33v.22h0v0h.61v2.64a1,1,0,0,0,1,1.13h.05a1.75,1.75,0,0,0,1.15-.71l0-.27ZM34.3,17.09A1.21,1.21,0,0,0,33,15.74h0a.93.93,0,0,0-.53.24l-.62.53a1.36,1.36,0,0,0-1.16-.76A.93.93,0,0,0,30,16l-.6.39v-.57l-.19-.07a4.58,4.58,0,0,1-1.18.33v.16a2,2,0,0,1,.69.17V19.5l-.65.13,0,.22,2,0,0-.2-.68-.18V16.72a1.83,1.83,0,0,1,1-.5c.75,0,.77.76.77,1.44V19.5l-.65.15v.2l2,0v-.2l-.68-.18,0-2.78a1.86,1.86,0,0,1,1-.44c.68,0,.72.58.73,1.19v2l-.66.15v.2l2,0v-.2l-.64-.18ZM28,16.23Zm0,3.6Zm2,0Zm2.47,0Zm2.44,0ZM23.08,14.7a.38.38,0,0,0,.38-.37.4.4,0,0,0-.38-.42.41.41,0,0,0-.38.42A.4.4,0,0,0,23.08,14.7Zm2,5.22h0a2.16,2.16,0,0,0,1.33-.52l0,.52h0c.16,0,1-.2,1.36-.27h0l-.13-.2-.6-.06V16.8c0-.75-.32-1.09-.85-1.09h-.07a.44.44,0,0,0-.22,0l-.95.56c-.1.07-.43.25-.45.41l0,.47.06.05.5-.09c.06,0,.15,0,.15-.12h0a1.93,1.93,0,0,1,0-.24c0-.32.08-.57.67-.66H26c.3,0,.47.32.47.92v.63c-.4.12-.85.3-1.32.46s-.92.28-.92,1A.91.91,0,0,0,25.12,19.92Zm1.34,0h0v0Zm0-2h0l-.22.07Zm0,0v.27l0,.93a2.16,2.16,0,0,1-.88.36A.6.6,0,0,1,25,19C24.94,18.4,25.56,18.24,26.49,17.92ZM22.8,19.55l-.77.12,0,.21,2.21,0v0h0v-.19l-.77-.16V15.82l-.16-.07a4.8,4.8,0,0,1-1.21.33v.21a1.9,1.9,0,0,1,.71.17Zm-.77.31Zm.09-3.59Zm-15,3.39-.77-.17.43-4.66,0-.12,2.08,5H9l2-5,0,.1.4,4.64-.83.13v.24l2.38,0,0-.24-.73-.17-.51-5.15.81-.12v0h0V14L10.8,14,9,18.27,7.24,14H5.44l0,.23.88.16-.5,5.15-.68.13,0,.24,2,0Zm3.55.2Zm2.34,0ZM7,19.88H7ZM14.4,20a2.49,2.49,0,0,0,.77-.09l1-1-.28,0a1.51,1.51,0,0,1-1.08.61h-.07c-1.28-.08-1.46-1.05-1.46-2.15h2.26c.24,0,.34,0,.34-.35a1.32,1.32,0,0,0-1.47-1.23,1.89,1.89,0,0,0-1.84,2.12A1.88,1.88,0,0,0,14.4,20Zm-.13-4c.62,0,.89.44.89,1v.09H13.29A1.09,1.09,0,0,1,14.27,16Zm2.42,3.51-.74.13v.24l2.18,0,0-.24-.75-.16V17.43c0-.15.39-1.1.84-1.1a.57.57,0,0,1,.33.14l.23,0,.16-.57a1.19,1.19,0,0,0-.66-.15c-.46,0-.59.52-.76.86l-.12.18v-1l-.2-.07h0a4.76,4.76,0,0,1-1.22.33v.21a2,2,0,0,1,.72.17Zm1.41.37Zm3.95-4a1.19,1.19,0,0,0-.66-.15c-.46,0-.59.52-.77.86l-.11.18v-1l-.2-.08v0h0a4.88,4.88,0,0,1-1.22.33v.21a2,2,0,0,1,.72.17v3.05l-.74.13v.24h.07l2.11,0,0-.24-.75-.16V17.43c0-.15.39-1.1.84-1.1a.62.62,0,0,1,.33.13l.22,0Zm10.54,9-.12.19V24l-.21-.08v0A4.85,4.85,0,0,1,31,24.3v.22a2,2,0,0,1,.76.17V27.9l-.78.14v.25l2.29,0v-.25l-.78-.17V25.71c0-.15.41-1.16.89-1.16a.69.69,0,0,1,.34.15l.24,0,.17-.59a1.23,1.23,0,0,0-.7-.16C32.92,24,32.78,24.52,32.59,24.88Zm-1.66,3.39Zm2.26,0ZM16,27.91H15.9c-1.36-.09-1.55-1.11-1.55-2.28l2.38,0c.26,0,.37,0,.37-.38A1.39,1.39,0,0,0,15.54,24a2,2,0,0,0-1.94,2.23,2,2,0,0,0,1.94,2.25,2.42,2.42,0,0,0,.82-.1l1-1.08-.29,0A1.63,1.63,0,0,1,16,27.91Zm-.56-3.66c.65,0,.93.47.94,1.07,0,0,0,.07,0,.11l-2,0A1.16,1.16,0,0,1,15.41,24.25Zm15.56,3a1.59,1.59,0,0,1-1.14.65h-.07c-1.36-.09-1.55-1.11-1.55-2.28l2.39,0c.25,0,.36,0,.36-.37A1.39,1.39,0,0,0,29.4,24a2,2,0,0,0-1.94,2.23,2,2,0,0,0,1.94,2.25,2.42,2.42,0,0,0,.82-.1l1-1.08Zm-1.7-3c.65,0,.94.47.94,1.07a.41.41,0,0,1,0,.11l-2,0A1.16,1.16,0,0,1,29.27,24.22Zm5.64-6.64v.59H36.5v-.59Z"/></g></g></svg>